<mxfile host="app.diagrams.net" modified="2023-08-07T15:20:15.790Z" agent="Mozilla/5.0 (Windows NT 10.0; Win64; x64) AppleWebKit/537.36 (KHTML, like Gecko) Chrome/114.0.0.0 Safari/537.36 OPR/100.0.0.0" version="21.6.6" etag="Acpfno9PCAkhBGelJR2z" type="github">
  <diagram name="PÃ¡gina-1" id="pzB2ZtPX1QJFOXqqpCjO">
    <mxGraphModel>
      <root>
        <mxCell id="0" />
        <mxCell id="1" parent="0" />
      </root>
    </mxGraphModel>
  </diagram>
</mxfile>
